<?xml version="1.0" encoding="utf-8"?>
<svg x="0pt" y="0pt" width="718.624pt" height="216pt" viewBox="0 0 718.624 216" xmlns="http://www.w3.org/2000/svg" xmlns:xlink="http://www.w3.org/1999/xlink">
  <g id="1">
    <title>Layer 3</title>
    <linearGradient x1="0" y1="108" x2="288" y2="108" gradientUnits="userSpaceOnUse" id="4">
      <stop style="stop-color:#3b875b;stop-opacity:1;"/>
      <stop offset="1" style="stop-color:#237464;stop-opacity:1;"/>
    </linearGradient>
    <defs>
      <title>Shape 5</title>
      <g id="2">
        <defs>
          <path id="3" d="M0,60.6601 C0,60.6601,144,7.62939e-06,144,7.62939e-06 C144,7.62939e-06,288,60.6601,288,60.6601 C288,60.6601,283.579,98.2727,283.579,98.2727 C283.579,98.2727,205.803,177.918,205.803,177.918 C205.803,177.918,273.853,182.294,273.853,182.294 C273.853,182.294,269.932,216,269.932,216 C269.932,216,17.8569,216,17.8569,216 C17.8569,216,0,60.6601,0,60.6601 M143.872,43.3179 C143.872,43.3179,228.621,84.5821,228.621,84.5821 C228.621,84.5821,143.872,172.699,143.872,172.699 C143.872,172.699,56.2359,180.097,56.2359,180.097 C56.2359,180.097,53.5006,144.684,53.5006,144.684 C53.5006,144.684,144,129.411,144,129.411 C144,129.411,143.786,86.6293,143.786,86.6293 C143.786,86.6293,50.8074,110.127,50.8074,110.127 C50.8074,110.127,48.1209,75.5871,48.1209,75.5871 C48.1209,75.5871,143.872,43.3179,143.872,43.3179 z"/>
        </defs>
        <use xlink:href="#3" style="fill:url(#4);fill-opacity:1;fill-rule:evenodd;opacity:1;stroke:none;"/>
      </g>
    </defs>
    <use xlink:href="#2"/>
    <g id="5">
      <title>Group</title>
      <defs>
        <title>Text</title>
        <g id="6">
          <defs>
            <path id="7" d="M360.347,155.225 C360.347,155.225,326.475,155.225,326.475,155.225 C326.475,155.225,326.475,215.655,326.475,215.655 C326.475,215.655,294.414,215.655,294.414,215.655 C294.414,215.655,294.414,61.5486,294.414,61.5486 C294.414,61.5486,371.425,61.5486,371.425,61.5486 C382.431,61.7577,390.899,63.082,396.829,65.5215 C402.758,67.961,407.782,71.5505,411.901,76.2901 C415.309,80.1933,418.008,84.5147,419.996,89.2543 C421.984,93.9939,422.978,99.3957,422.978,105.46 C422.978,112.778,421.097,119.975,417.333,127.049 C413.569,134.124,407.356,139.125,398.693,142.052 C405.936,144.91,411.066,148.97,414.084,154.232 C417.102,159.495,418.611,167.527,418.611,178.331 C418.611,178.331,418.611,188.681,418.611,188.681 C418.611,195.721,418.895,200.496,419.463,203.005 C420.315,206.978,422.304,209.905,425.428,211.787 C425.428,211.787,425.428,215.655,425.428,215.655 C425.428,215.655,389.319,215.655,389.319,215.655 C388.325,212.24,387.615,209.487,387.189,207.396 C386.337,203.074,385.875,198.649,385.804,194.118 C385.804,194.118,385.591,179.795,385.591,179.795 C385.449,169.967,383.621,163.415,380.106,160.139 C376.591,156.863,370.005,155.225,360.347,155.225 z M380.266,127.206 C386.799,124.279,390.065,118.493,390.065,109.851 C390.065,100.511,386.905,94.2379,380.585,91.0317 C377.035,89.2195,371.709,88.3134,364.608,88.3134 C364.608,88.3134,326.475,88.3134,326.475,88.3134 C326.475,88.3134,326.475,129.715,326.475,129.715 C326.475,129.715,363.649,129.715,363.649,129.715 C371.034,129.715,376.573,128.879,380.266,127.206 z"/>
          </defs>
          <use xlink:href="#7" style="fill:#000000;fill-opacity:1;fill-rule:nonzero;opacity:1;stroke:none;"/>
          <use xlink:href="#7" style="fill:#237464;fill-opacity:1;fill-rule:nonzero;opacity:1;stroke:none;"/>
        </g>
      </defs>
      <use xlink:href="#6"/>
      <defs>
        <title>Text</title>
        <g id="8">
          <defs>
            <path id="9" d="M533.968,181.994 C533.186,188.755,529.6,195.619,523.209,202.589 C513.268,213.67,499.35,219.21,481.455,219.21 C466.685,219.21,453.655,214.541,442.364,205.202 C431.074,195.863,425.428,180.67,425.428,159.623 C425.428,139.9,430.523,124.777,440.713,114.253 C450.903,103.729,464.129,98.4676,480.39,98.4676 C490.048,98.4676,498.746,100.245,506.487,103.799 C514.227,107.353,520.618,112.964,525.659,120.63 C530.204,127.39,533.151,135.231,534.5,144.151 C535.281,149.378,535.601,156.905,535.459,166.732 C535.459,166.732,455.998,166.732,455.998,166.732 C456.424,178.161,460.081,186.176,466.969,190.776 C471.159,193.633,476.201,195.062,482.094,195.062 C488.343,195.062,493.421,193.319,497.326,189.835 C499.457,187.953,501.338,185.34,502.972,181.994 C502.972,181.994,533.968,181.994,533.968,181.994 z M503.93,147.078 C503.433,139.203,501.001,133.227,496.634,129.15 C492.267,125.073,486.852,123.034,480.39,123.034 C473.36,123.034,467.91,125.195,464.04,129.516 C460.17,133.837,457.738,139.691,456.744,147.078 C456.744,147.078,503.93,147.078,503.93,147.078 z"/>
          </defs>
          <use xlink:href="#9" style="fill:#000000;fill-opacity:1;fill-rule:nonzero;opacity:1;stroke:none;"/>
          <use xlink:href="#9" style="fill:#237464;fill-opacity:1;fill-rule:nonzero;opacity:1;stroke:none;"/>
        </g>
      </defs>
      <use xlink:href="#8"/>
      <defs>
        <title>Text</title>
        <g id="10">
          <defs>
            <path id="11" d="M597.623,123.452 C587.326,123.452,580.261,127.744,576.426,136.327 C574.438,140.863,573.444,146.654,573.444,153.702 C573.444,153.702,573.444,215.457,573.444,215.457 C573.444,215.457,543.194,215.457,543.194,215.457 C543.194,215.457,543.194,101.576,543.194,101.576 C543.194,101.576,572.485,101.576,572.485,101.576 C572.485,101.576,572.485,118.219,572.485,118.219 C576.391,112.357,580.083,108.136,583.563,105.554 C589.812,100.948,597.729,98.6458,607.316,98.6458 C619.317,98.6458,629.134,101.734,636.767,107.909 C644.401,114.085,648.218,124.325,648.218,138.63 C648.218,138.63,648.218,215.457,648.218,215.457 C648.218,215.457,617.115,215.457,617.115,215.457 C617.115,215.457,617.115,146.061,617.115,146.061 C617.115,140.06,616.299,135.455,614.665,132.245 C611.683,126.383,606.002,123.452,597.623,123.452 z"/>
          </defs>
          <use xlink:href="#11" style="fill:#000000;fill-opacity:1;fill-rule:nonzero;opacity:1;stroke:none;"/>
          <use xlink:href="#11" style="fill:#237464;fill-opacity:1;fill-rule:nonzero;opacity:1;stroke:none;"/>
        </g>
      </defs>
      <use xlink:href="#10"/>
      <defs>
        <title>Text</title>
        <g id="12">
          <defs>
            <path id="13" d="M713.299,192.808 C713.299,192.808,713.299,215.07,713.299,215.07 C713.299,215.07,698.919,215.592,698.919,215.592 C684.575,216.08,674.776,213.641,669.521,208.276 C666.112,204.862,664.408,199.601,664.408,192.494 C664.408,192.494,664.408,122.363,664.408,122.363 C664.408,122.363,648.218,122.363,648.218,122.363 C648.218,122.363,648.218,101.146,648.218,101.146 C648.218,101.146,664.408,101.146,664.408,101.146 C664.408,101.146,664.408,69.3728,664.408,69.3728 C664.408,69.3728,694.445,69.3728,694.445,69.3728 C694.445,69.3728,694.445,101.146,694.445,101.146 C694.445,101.146,713.299,101.146,713.299,101.146 C713.299,101.146,713.299,122.363,713.299,122.363 C713.299,122.363,694.445,122.363,694.445,122.363 C694.445,122.363,694.445,182.565,694.445,182.565 C694.445,187.233,695.049,190.142,696.256,191.292 C697.463,192.442,701.156,193.017,707.334,193.017 C708.257,193.017,709.233,192.999,710.263,192.964 C711.293,192.93,712.305,192.877,713.299,192.808 z"/>
          </defs>
          <use xlink:href="#13" style="fill:#000000;fill-opacity:1;fill-rule:nonzero;opacity:1;stroke:none;"/>
          <use xlink:href="#13" style="fill:#237464;fill-opacity:1;fill-rule:nonzero;opacity:1;stroke:none;"/>
        </g>
      </defs>
      <use xlink:href="#12"/>
    </g>
  </g>
</svg>
